<svg width="40" height="40" viewBox="0 0 40 40" fill="none" xmlns="http://www.w3.org/2000/svg">
<g clip-path="url(#clip0_3_578)">
<path d="M28.3333 35C28.3333 32.7899 27.4554 30.6702 25.8926 29.1074C24.3298 27.5446 22.2101 26.6667 20 26.6667C17.7899 26.6667 15.6702 27.5446 14.1074 29.1074C12.5446 30.6702 11.6667 32.7899 11.6667 35M28.3333 35H29.6717C31.535 35 32.4667 35 33.1783 34.6367C33.8064 34.3169 34.3169 33.8064 34.6367 33.1783C35 32.4667 35 31.535 35 29.6717V10.3283C35 8.465 35 7.53167 34.6367 6.82C34.3166 6.19264 33.8061 5.68272 33.1783 5.36333C32.4667 5 31.5333 5 29.6667 5H10.3333C8.46667 5 7.53333 5 6.82 5.36333C6.19275 5.68281 5.68281 6.19275 5.36333 6.82C5 7.53333 5 8.46667 5 10.3333V29.6667C5 31.5333 5 32.4667 5.36333 33.1783C5.68333 33.8067 6.19167 34.3167 6.82 34.6367C7.53167 35 8.465 35 10.3283 35H11.6667M28.3333 35H11.6667M20 21.6667C18.6739 21.6667 17.4021 21.1399 16.4645 20.2022C15.5268 19.2645 15 17.9927 15 16.6667C15 15.3406 15.5268 14.0688 16.4645 13.1311C17.4021 12.1935 18.6739 11.6667 20 11.6667C21.3261 11.6667 22.5979 12.1935 23.5355 13.1311C24.4732 14.0688 25 15.3406 25 16.6667C25 17.9927 24.4732 19.2645 23.5355 20.2022C22.5979 21.1399 21.3261 21.6667 20 21.6667Z" stroke="url(#paint0_linear_3_578)" stroke-width="3.33333" stroke-linecap="round" stroke-linejoin="round"/>
</g>
<defs>
<linearGradient id="paint0_linear_3_578" x1="8.16667" y1="11.6667" x2="29.1667" y2="30.8333" gradientUnits="userSpaceOnUse">
<stop stop-color="#72B1E9"/>
<stop offset="1" stop-color="#415BB6"/>
</linearGradient>
<clipPath id="clip0_3_578">
<rect width="40" height="40" fill="white"/>
</clipPath>
</defs>
</svg>
