<svg width="40" height="40" viewBox="0 0 40 40" fill="none" xmlns="http://www.w3.org/2000/svg">
<g clip-path="url(#clip0_3_574)">
<path d="M7.56 19.1083L19.05 7.61659C19.8609 6.79651 20.8259 6.14482 21.8895 5.69899C22.9531 5.25316 24.0943 5.02199 25.2476 5.01877C26.4009 5.01555 27.5434 5.24035 28.6095 5.68024C29.6756 6.12013 30.6442 6.76643 31.4596 7.58197C32.2751 8.39751 32.9212 9.36621 33.361 10.4324C33.8007 11.4985 34.0254 12.6411 34.022 13.7943C34.0186 14.9476 33.7873 16.0888 33.3413 17.1524C32.8953 18.2159 32.2435 19.1808 31.4233 19.9916L18.1667 33.2499C17.0726 34.3439 15.5888 34.9585 14.0417 34.9585C12.4945 34.9585 11.0107 34.3439 9.91666 33.2499C8.82265 32.1559 8.20803 30.6721 8.20803 29.1249C8.20803 27.5777 8.82265 26.0939 9.91666 24.9999L23.1767 11.7416C23.7269 11.2104 24.4637 10.9166 25.2284 10.9234C25.9932 10.9302 26.7246 11.2371 27.2653 11.7779C27.806 12.3188 28.1126 13.0504 28.119 13.8152C28.1255 14.5799 27.8314 15.3166 27.3 15.8666L15.8083 27.3566" stroke="url(#paint0_linear_3_574)" stroke-width="3.33333" stroke-linecap="round" stroke-linejoin="round"/>
</g>
<defs>
<linearGradient id="paint0_linear_3_574" x1="10.3532" y1="11.672" x2="30.9221" y2="28.2646" gradientUnits="userSpaceOnUse">
<stop stop-color="#E66EDF"/>
<stop offset="1" stop-color="#B23373"/>
</linearGradient>
<clipPath id="clip0_3_574">
<rect width="40" height="40" fill="white"/>
</clipPath>
</defs>
</svg>
