<svg width="54" height="48" viewBox="0 0 54 48" fill="none" xmlns="http://www.w3.org/2000/svg">
<path d="M24.5 5.25H10.75C9.75544 5.25 8.80161 5.64509 8.09835 6.34835C7.39509 7.05161 7 8.00544 7 9V35.25H47V21.5" stroke="white" stroke-width="4" stroke-linecap="round" stroke-linejoin="round"/>
<path d="M2 35.25H52V37.75C52 39.7391 51.2098 41.6468 49.8033 43.0533C48.3968 44.4598 46.4891 45.25 44.5 45.25H9.5C7.51088 45.25 5.60322 44.4598 4.1967 43.0533C2.79018 41.6468 2 39.7391 2 37.75V35.25Z" stroke="white" stroke-width="4" stroke-linejoin="round"/>
<path d="M38.25 2.75L33.25 7.75L38.25 12.75M45.75 2.75L50.75 7.75L45.75 12.75" stroke="white" stroke-width="4" stroke-linecap="round" stroke-linejoin="round"/>
</svg>
