<svg width="20" height="20" viewBox="0 0 20 20" fill="none" xmlns="http://www.w3.org/2000/svg">
<mask id="mask0_1873_2616" style="mask-type:alpha" maskUnits="userSpaceOnUse" x="0" y="0" width="20" height="20">
<path fill-rule="evenodd" clip-rule="evenodd" d="M3.33333 4.37559C2.98816 4.37559 2.70833 4.65541 2.70833 5.00058V16.6671C2.70833 17.0122 2.98816 17.2921 3.33333 17.2921H15C15.3452 17.2921 15.625 17.0122 15.625 16.6671V10.8338C15.625 10.2585 16.0914 9.79217 16.6667 9.79217C17.242 9.79217 17.7083 10.2585 17.7083 10.8338V16.6671C17.7083 18.1628 16.4958 19.3754 15 19.3754H3.33333C1.83756 19.3754 0.625 18.1628 0.625 16.6671V5.00058C0.625 3.50484 1.83756 2.29229 3.33333 2.29229H9.16667C9.74196 2.29229 10.2083 2.75866 10.2083 3.33394C10.2083 3.90923 9.74196 4.37559 9.16667 4.37559H3.33333Z" fill="#006FFD"/>
<path d="M10.9122 11.9178L16.8688 5.96138L14.0395 3.13219L8.083 9.08861C8.001 9.17072 7.94275 9.27349 7.91443 9.38602L7.25423 12.7466L10.6142 12.0864C10.727 12.0582 10.8302 11.9998 10.9122 11.9178ZM18.7917 4.0385C19.032 3.79811 19.167 3.47211 19.167 3.13219C19.167 2.79227 19.032 2.46627 18.7917 2.22587L17.7751 1.20931C17.5347 0.96899 17.2087 0.833984 16.8688 0.833984C16.5288 0.833984 16.2028 0.96899 15.9624 1.20931L14.9459 2.22587L17.7751 5.05506L18.7917 4.0385Z" fill="#006FFD"/>
</mask>
<g mask="url(#mask0_1873_2616)">
<rect width="20" height="19.9997" fill="#006FFD"/>
</g>
</svg>
