<svg width="20" height="20" viewBox="0 0 20 20" fill="none" xmlns="http://www.w3.org/2000/svg">
<g clip-path="url(#clip0_1282_1421)">
<g clip-path="url(#clip1_1282_1421)">
<path d="M18.2499 10.5696V9.42207L19.6899 8.16207C19.9554 7.92811 20.1296 7.60784 20.1817 7.25787C20.2339 6.9079 20.1606 6.55076 19.9749 6.24957L18.2049 3.24957C18.0734 3.02177 17.8843 2.83256 17.6566 2.70092C17.4288 2.56928 17.1705 2.49984 16.9074 2.49957C16.7444 2.49832 16.5823 2.52366 16.4274 2.57457L14.6049 3.18957C14.2903 2.98048 13.9621 2.79256 13.6224 2.62707L13.2399 0.737073C13.1714 0.391776 12.9835 0.0816029 12.7093 -0.139151C12.4351 -0.359904 12.0919 -0.477173 11.7399 -0.470428H8.22995C7.87797 -0.477173 7.53483 -0.359904 7.2606 -0.139151C6.98638 0.0816029 6.79853 0.391776 6.72995 0.737073L6.34745 2.62707C6.0054 2.79252 5.67467 2.98043 5.35745 3.18957L3.57245 2.54457C3.41592 2.50379 3.25383 2.48859 3.09245 2.49957C2.8294 2.49984 2.57105 2.56928 2.34332 2.70092C2.11558 2.83256 1.92647 3.02177 1.79495 3.24957L0.0249453 6.24957C-0.150114 6.55031 -0.215166 6.90257 -0.159068 7.246C-0.10297 7.58943 0.0707877 7.90267 0.332445 8.13207L1.74995 9.42957V10.5771L0.332445 11.8371C0.0633968 12.0681 -0.115113 12.3869 -0.171406 12.737C-0.227698 13.0871 -0.158133 13.4459 0.0249453 13.7496L1.79495 16.7496C1.92647 16.9774 2.11558 17.1666 2.34332 17.2982C2.57105 17.4299 2.8294 17.4993 3.09245 17.4996C3.25546 17.5008 3.41758 17.4755 3.57245 17.4246L5.39495 16.8096C5.7096 17.0187 6.03783 17.2066 6.37745 17.3721L6.75995 19.2621C6.82853 19.6074 7.01638 19.9175 7.2906 20.1383C7.56483 20.3591 7.90797 20.4763 8.25995 20.4696H11.7999C12.1519 20.4763 12.4951 20.3591 12.7693 20.1383C13.0435 19.9175 13.2314 19.6074 13.2999 19.2621L13.6824 17.3721C14.0245 17.2066 14.3552 17.0187 14.6724 16.8096L16.4874 17.4246C16.6423 17.4755 16.8044 17.5008 16.9674 17.4996C17.2305 17.4993 17.4888 17.4299 17.7166 17.2982C17.9443 17.1666 18.1334 16.9774 18.2649 16.7496L19.9749 13.7496C20.15 13.4488 20.2151 13.0966 20.159 12.7532C20.1029 12.4097 19.9291 12.0965 19.6674 11.8671L18.2499 10.5696ZM16.9074 15.9996L14.3349 15.1296C13.7327 15.6397 13.0445 16.0384 12.3024 16.3071L11.7699 18.9996H8.22995L7.69745 16.3371C6.96126 16.0608 6.27673 15.6627 5.67245 15.1596L3.09245 15.9996L1.32245 12.9996L3.36245 11.1996C3.22377 10.4232 3.22377 9.62843 3.36245 8.85207L1.32245 6.99957L3.09245 3.99957L5.66495 4.86957C6.26715 4.35949 6.9554 3.96076 7.69745 3.69207L8.22995 0.999573H11.7699L12.3024 3.66207C13.0386 3.93839 13.7232 4.33643 14.3274 4.83957L16.9074 3.99957L18.6774 6.99957L16.6374 8.79957C16.7761 9.57593 16.7761 10.3707 16.6374 11.1471L18.6774 12.9996L16.9074 15.9996Z" fill="#1E88E5"/>
<path d="M10 14.5C9.10999 14.5 8.23996 14.2361 7.49994 13.7416C6.75991 13.2471 6.18314 12.5443 5.84254 11.7221C5.50195 10.8998 5.41283 9.99501 5.58647 9.1221C5.7601 8.24918 6.18868 7.44736 6.81802 6.81802C7.44736 6.18868 8.24918 5.7601 9.1221 5.58647C9.99501 5.41283 10.8998 5.50195 11.7221 5.84254C12.5443 6.18314 13.2471 6.75991 13.7416 7.49994C14.2361 8.23996 14.5 9.10999 14.5 10C14.506 10.5926 14.3937 11.1805 14.1697 11.7292C13.9457 12.2779 13.6145 12.7763 13.1954 13.1954C12.7763 13.6145 12.2779 13.9457 11.7292 14.1697C11.1805 14.3937 10.5926 14.506 10 14.5ZM10 7C9.60351 6.99077 9.20927 7.06205 8.84111 7.20954C8.47296 7.35704 8.13855 7.57768 7.85812 7.85812C7.57768 8.13855 7.35704 8.47296 7.20954 8.84111C7.06205 9.20927 6.99077 9.60351 7 10C6.99077 10.3965 7.06205 10.7907 7.20954 11.1589C7.35704 11.527 7.57768 11.8615 7.85812 12.1419C8.13855 12.4223 8.47296 12.643 8.84111 12.7905C9.20927 12.938 9.60351 13.0092 10 13C10.3965 13.0092 10.7907 12.938 11.1589 12.7905C11.527 12.643 11.8615 12.4223 12.1419 12.1419C12.4223 11.8615 12.643 11.527 12.7905 11.1589C12.938 10.7907 13.0092 10.3965 13 10C13.0092 9.60351 12.938 9.20927 12.7905 8.84111C12.643 8.47296 12.4223 8.13855 12.1419 7.85812C11.8615 7.57768 11.527 7.35704 11.1589 7.20954C10.7907 7.06205 10.3965 6.99077 10 7Z" fill="#1E88E5"/>
</g>
</g>
<defs>
<clipPath id="clip0_1282_1421">
<rect width="20" height="19.9997" fill="white"/>
</clipPath>
<clipPath id="clip1_1282_1421">
<rect width="24" height="24" fill="white" transform="translate(-2 -2)"/>
</clipPath>
</defs>
</svg>
