<svg width="80" height="80" viewBox="0 0 80 80" fill="none" xmlns="http://www.w3.org/2000/svg">
<g opacity="0.5">
<path d="M20 33.3335H26.6666C28.4347 33.3335 30.1304 34.0359 31.3807 35.2861C32.6309 36.5364 33.3333 38.2321 33.3333 40.0002V56.6668H23.3333C21.5652 56.6668 19.8695 55.9644 18.6192 54.7142C17.369 53.464 16.6666 51.7683 16.6666 50.0002C16.6666 48.2321 17.369 46.5364 18.6192 45.2861C19.8695 44.0359 21.5652 43.3335 23.3333 43.3335H33.3333M63.3333 23.3335H53.3333C51.5652 23.3335 49.8695 24.0359 48.6193 25.2861C47.369 26.5364 46.6666 28.2321 46.6666 30.0002V50.0002C46.6666 51.7683 47.369 53.464 48.6193 54.7142C49.8695 55.9644 51.5652 56.6668 53.3333 56.6668H56.6666C58.4347 56.6668 60.1304 55.9644 61.3807 54.7142C62.6309 53.464 63.3333 51.7683 63.3333 50.0002V40.0002C63.3333 38.2321 62.6309 36.5364 61.3807 35.2861C60.1304 34.0359 58.4347 33.3335 56.6666 33.3335H46.6666" stroke="white" stroke-width="6.66667" stroke-linecap="round" stroke-linejoin="round"/>
</g>
</svg>
