<svg width="51" height="53" viewBox="0 0 51 53" fill="none" xmlns="http://www.w3.org/2000/svg">
<path d="M49.5666 15.8536C47.5277 15.8663 47.7283 19.6279 45.1879 17.8531C44.2447 17.1955 43.6645 16.2395 42.48 15.9488C41.4454 15.6949 40.3853 15.959 39.3633 16.1354C38.2017 16.336 36.8243 16.4262 35.9432 17.3059C35.0914 18.1527 34.6407 19.289 33.7342 20.1408C31.981 21.7912 31.2409 23.5927 32.3758 25.9261C33.4676 28.1693 35.7515 29.3868 38.2157 29.2268C40.6367 29.0656 43.1516 27.6615 43.0818 31.1794C43.0564 32.4235 43.3167 33.2868 43.6988 34.4433C44.053 35.5098 44.0289 36.5431 44.1101 37.6438C44.2599 39.7005 44.6382 42.0059 45.6589 43.8226L47.5632 41.1363C47.7981 40.8037 48.2894 40.3378 48.4062 39.9455C48.6131 39.2511 48.2056 38.0577 48.1587 37.2795C48.1117 36.5013 48.1345 35.7129 48.0152 34.9347C47.8476 33.8441 47.2027 32.8222 47.1138 31.7443C46.9501 29.7372 47.317 28.135 45.7707 26.4567C44.2777 24.8381 42.089 24.4496 39.9981 24.7784C38.9444 24.9434 34.7029 25.6214 36.4053 23.2131C36.7418 22.7395 37.3295 22.3511 37.7079 21.9004C38.0367 21.5081 38.3223 20.787 38.7083 20.481C39.0942 20.1751 40.8665 19.8234 41.3743 19.9796C41.8821 20.1357 42.4115 20.8682 42.852 21.1932C43.6659 21.8063 44.6158 22.2139 45.6209 22.3815C47.355 22.6354 50.9808 21.6274 50.9529 19.4032C50.9478 18.3368 49.9576 16.8515 49.5666 15.8536ZM29.4927 34.1552C28.8161 31.3063 24.9453 30.3542 22.8582 28.8092C21.6585 27.9205 20.5908 26.5481 19.0153 26.4364C18.2891 26.3844 17.681 26.5418 16.9612 26.3552C16.301 26.185 15.7831 25.8296 15.0797 25.9223C13.7658 26.0949 12.9368 27.499 11.5251 27.3086C10.1857 27.1283 8.80572 25.5617 8.50103 24.2858C8.11002 22.6456 9.40748 22.1137 10.7976 21.9677C11.3778 21.9067 12.0291 21.8407 12.5864 22.0527C13.3202 22.3257 13.6668 23.0442 14.3256 23.4073C15.5609 24.084 15.811 23.0023 15.6218 21.9055C15.3387 20.2627 15.0086 19.5924 16.4737 18.4625C17.4893 17.683 18.3577 17.1193 18.1952 15.719C18.0987 14.8964 17.648 14.5244 18.0682 13.7056C18.3869 13.0822 19.2616 12.5198 19.8316 12.1478C21.303 11.1881 26.1348 11.2592 24.1607 8.57284C23.5805 7.78446 22.5103 6.37528 21.4947 6.18231C20.2252 5.94237 19.6615 7.35917 18.7766 7.98378C17.8626 8.62997 16.0827 9.36376 15.1673 8.36464C13.9359 7.0202 15.9837 6.5784 16.4369 5.64022C16.8901 4.70204 15.387 2.9285 14.5821 2.47909L10.7976 6.72313C10.6889 7.43389 10.7267 8.15937 10.9088 8.85496C11.0909 9.55055 11.4134 10.2015 11.8564 10.7679C12.6092 11.7365 13.8077 12.0475 13.8623 13.3704C13.9156 14.6399 13.7175 15.2899 12.8873 16.1824C12.528 16.5633 12.2741 17.1041 11.9085 17.4608C11.4603 17.8963 11.6266 17.763 10.9271 17.8823C9.61187 18.1045 8.49215 18.4473 7.22134 18.7976C5.10377 19.3829 4.90826 15.9234 3.94342 14.5663L0.769588 17.1295C0.73531 17.5497 1.2901 18.3228 1.44117 18.7799C2.30826 21.3913 4.05767 23.4111 5.18756 25.9096C6.37711 28.5553 9.57125 27.8215 10.9817 30.1396C12.2335 32.1963 10.8966 34.8001 11.8336 36.9532C12.514 38.516 14.1187 38.8575 15.2257 40.0001C16.3569 41.1541 16.3328 42.7334 16.5054 44.2352C16.7001 46.0017 17.0162 47.7527 17.4512 49.4759C17.6048 50.0713 17.7458 50.8584 18.1533 51.3497C18.4326 51.6874 19.3911 51.9781 19.0039 52.0898C19.5447 52.1787 20.5083 52.684 20.9589 52.3133C21.5531 51.8258 21.3944 50.3252 21.4972 49.6472C21.8057 47.6287 22.8163 45.6546 24.1797 44.1438C25.5267 42.6534 27.3726 41.6441 28.5101 39.9544C29.6184 38.3065 29.9523 36.0836 29.4927 34.1552ZM25.2538 37.4966C24.492 38.8562 22.796 39.7665 21.7054 40.8469C21.4096 41.1401 20.7799 42.1557 20.4092 41.9361C20.1439 41.7787 20.0538 40.4609 19.956 40.1588C19.4517 38.6373 18.489 37.3091 17.1999 36.3565C16.8025 36.0557 15.8173 35.6646 15.5901 35.252C15.3362 34.8039 15.5647 33.7464 15.5736 33.2589C15.5876 32.5479 15.2638 31.366 15.439 30.7198C15.6421 29.9746 15.2511 30.424 15.9176 30.2767C16.2693 30.198 17.7216 30.4532 18.1596 30.5446C18.8553 30.6893 19.2387 31.1222 19.7872 31.5602C21.2294 32.7168 22.8175 33.6118 24.4337 34.4979C25.6854 35.1911 26.0536 36.0683 25.2538 37.4966ZM16.4178 2.51717C17.0196 3.10497 17.5858 3.80067 18.4834 3.85907C19.3327 3.9162 20.1337 3.45663 20.8752 4.03426C21.6978 4.66903 22.2907 5.47264 23.3825 5.67069C24.4387 5.86239 25.5572 5.2454 25.8187 4.16503C26.0726 3.13544 25.5254 2.01571 25.4924 0.982311C25.4924 0.838854 25.5699 0.201549 25.4709 0.093639C25.3972 0.012389 24.7828 0.103795 24.6888 0.106334C24.0007 0.126647 23.3143 0.174043 22.6296 0.248522C20.1335 0.518697 17.689 1.14501 15.3705 2.10839C15.679 2.32167 16.0662 2.40672 16.4178 2.51717ZM38.2462 9.6494C39.324 9.6494 40.4183 9.16698 40.0705 7.9203C39.7785 6.87548 39.2808 5.74178 38.0697 6.30546C37.2991 6.66346 36.2073 7.57499 36.1171 8.47889C36.0143 9.50467 37.5276 9.6494 38.2462 9.6494ZM37.3854 15.1046C38.4861 15.7635 40.1187 15.4537 40.949 14.513C41.5977 13.7766 41.9798 12.4982 43.1465 12.4995C43.6602 12.4984 44.1536 12.6995 44.5202 13.0594C45.0026 13.5583 44.9074 14.0267 45.0102 14.6514C45.24 16.0542 46.7444 14.7313 47.1367 14.188C47.3906 13.8338 47.7346 13.3082 47.6191 12.8474C47.5125 12.417 47.0097 11.9587 46.7863 11.5639C46.1338 10.4213 45.5967 9.09208 44.6192 8.16913C43.6785 7.28046 42.5219 7.38329 41.6294 8.30624C40.8982 9.06796 40.0489 9.67098 39.5487 10.5977C39.1958 11.249 38.7984 11.56 38.0836 11.7289C37.6901 11.8216 37.2407 11.8558 36.9106 12.1199C35.9915 12.8435 36.5145 14.5815 37.3854 15.1046Z" fill="white"/>
</svg>
